<?xml version="1.0" standalone="no"?>
<!DOCTYPE svg PUBLIC "-//W3C//DTD SVG 20010904//EN"
 "http://www.w3.org/TR/2001/REC-SVG-20010904/DTD/svg10.dtd">
<svg version="1.0" xmlns="http://www.w3.org/2000/svg"
 width="100.000000pt" height="100.000000pt" viewBox="0 0 100.000000 100.000000"
 preserveAspectRatio="xMidYMid meet">

<g transform="translate(0.000000,100.000000) scale(0.100000,-0.100000)"
fill="#000000" stroke="none">
<path d="M291 853 c-5 -21 -12 -56 -15 -78 -3 -22 2 -8 12 30 l17 70 118 3
c64 1 117 -1 117 -6 0 -4 -27 -67 -60 -140 -33 -73 -60 -135 -60 -137 0 -2 40
-6 90 -7 l90 -3 -173 -197 c-94 -108 -173 -195 -175 -193 -3 3 26 104 74 258
3 9 2 17 -3 17 -5 0 -9 -8 -10 -17 -1 -10 -22 -83 -47 -162 -24 -80 -42 -149
-40 -153 11 -18 34 -6 69 38 21 25 107 127 191 226 85 99 154 183 154 188 0 5
-43 11 -95 12 l-95 3 64 135 c35 74 62 138 59 142 -2 5 -64 8 -138 8 l-134 0
-10 -37z"/>
<path d="M262 710 c0 -14 2 -19 5 -12 2 6 2 18 0 25 -3 6 -5 1 -5 -13z"/>
<path d="M241 619 c-7 -33 -10 -63 -8 -65 2 -3 10 23 16 57 7 33 10 63 8 65
-2 3 -10 -23 -16 -57z"/>
<path d="M222 520 c0 -14 2 -19 5 -12 2 6 2 18 0 25 -3 6 -5 1 -5 -13z"/>
<path d="M210 480 c0 -5 5 -10 11 -10 5 0 7 5 4 10 -3 6 -8 10 -11 10 -2 0 -4
-4 -4 -10z"/>
</g>
</svg>
